<svg width="44" height="44" fill="none" xmlns="http://www.w3.org/2000/svg"><path d="M39 0H5a5 5 0 00-5 5v34a5 5 0 005 5h34a5 5 0 005-5V5a5 5 0 00-5-5z" fill="#B4B8BB" fill-opacity=".4"/><path d="M27.222 44l-20-20L0 31.222V39a5 5 0 005 5h22.222z" fill="#AEB5B9" fill-opacity=".5"/><path d="M34.222 14L44 23.778V39a5 5 0 01-5 5H27.222l-11.5-11.5 18.5-18.5z" fill="#AEB5B9" fill-opacity=".3"/><path d="M9 13a4 4 0 100-8 4 4 0 000 8z" fill="#fff" fill-opacity=".3"/><path d="M14.05 23.7a7.887 7.887 0 01.247-3.025c.887-3.139 3.671-5.447 6.974-5.488v-2.052c0-.114.138-.175.228-.106l4.072 3.103c.067.052.067.158 0 .207l-4.068 3.103c-.094.069-.228.008-.228-.106v-2.048c-2.172.037-4.025 1.425-4.822 3.387a5.63 5.63 0 00.75 5.566 1.076 1.076 0 01-.193 1.506.998.998 0 01-1.406-.203A7.675 7.675 0 0114.05 23.7zm11.757-3.94a5.553 5.553 0 011.162 3.146 5.67 5.67 0 01-.412 2.419c-.797 1.962-2.65 3.355-4.822 3.387v-2.048c0-.114-.138-.175-.228-.106l-4.073 3.103c-.066.053-.066.159 0 .207l4.069 3.103c.094.069.228.008.228-.106v-2.052c3.302-.037 6.09-2.345 6.974-5.488a7.965 7.965 0 00.248-3.025 7.635 7.635 0 00-1.552-3.844c-.345-.447-.962-.541-1.406-.203a1.079 1.079 0 00-.188 1.506z" fill="#fff"/></svg>